# xmcd CD database file
#
# Track frame offsets:
#	150
#	17378
#	28914
#	41365
#	52699
#	67213
#	81067
#	91487
#	95941
#	102466
#	113144
#	125562
#	136080
#	159409
#	174977
#	201542
#	215702
#	231934
#	240050
#	251917
#	256831
#	264864
#	271949
#	277815
#	283329
#	292479
#	308602
#
# Disc length: 4301 seconds
#
# Revision: 0
# Processed by: cddbd v1.5.1PL2 Copyright (c) Steve Scherf et al.
# Submitted via: CDex 1.51
#
DISCID=8a10cb1b
DTITLE=Hin Liturgico VIII - Lit VIII Adv B e C e Salmos Miria
DYEAR=2005
DGENRE=Liturgico
TTITLE0=01-Entrada1-Quando vira, senhor
TTITLE1=02-Entrada2-Senhor vem salvar teu povo
TTITLE2=03-Entrada3-Alegrai-vos ele esta bem perto
TTITLE3=04-Entrada4-Oh vinde enfim eterno Deus
TTITLE4=05-Salmo 1 e 2-Mostrai-nos o Senhor
TTITLE5=06-Salmo 3-O Cantico de Maria
TTITLE6=07-Salmo 4-Oh Senhor quero cantar o vosso nome
TTITLE7=08-Aclamacao 1 2 3-Aleluia Vem mostrar nos oh Senhor
TTITLE8=09-Aclamacao 4-Aleluia eis a serva do Senhor
TTITLE9=10-Ofertas 1 e 3-A nossa oferta apresentamos
TTITLE10=11-Ofertas 2-Nasceu em belem a casa do pao
TTITLE11=12-Ofertas 4-Muito suspira por ti
TTITLE12=13-Comunhao 1-Vigia eu vos digo
TTITLE13=14-Comunhao 2-Visitai a vossa vinha
TTITLE14=15-Comunhao 3 dom-Ide e contai melodia Ouco uma voz
TTITLE15=16-Comunhao 4-Cantico de Maria
TTITLE16=17-Como o sol nasce da aurora-Entrada ou final
TTITLE17=18-Salmo 1 Miria B
TTITLE18=19-Salmo 2 Miria B
TTITLE19=20-Salmo 3 Miria B
TTITLE20=21-Salmo 4 Miria B
TTITLE21=22-Salmo 1 Miria C
TTITLE22=23-Salmo 2 Miria C
TTITLE23=24-Salmo 3 Miria C
TTITLE24=25-Salmo 4 Miria C
TTITLE25=26-Entrada 1 dom C-O Senhor vira libertar o seu povo
TTITLE26=27-Comunhao 4 dom C-O Canto de Maria
EXTD=YEAR: 2005
EXTT0=
EXTT1=
EXTT2=
EXTT3=
EXTT4=
EXTT5=
EXTT6=
EXTT7=
EXTT8=
EXTT9=
EXTT10=
EXTT11=
EXTT12=
EXTT13=
EXTT14=
EXTT15=
EXTT16=
EXTT17=
EXTT18=
EXTT19=
EXTT20=
EXTT21=
EXTT22=
EXTT23=
EXTT24=
EXTT25=
EXTT26=
PLAYORDER=
